<svg xmlns="http://www.w3.org/2000/svg" xmlns:xlink="http://www.w3.org/1999/xlink" contentstyletype="text/css" height="528px" preserveAspectRatio="none" style="width:753px;height:528px;background:#FFFFFF;" version="1.1" viewBox="0 0 753 528" width="753px" zoomAndPan="magnify"><defs></defs><g><!--cluster Handle Upload--><g id="cluster_Handle Upload"><path d="M96.19,6 L210.19,6 A3.75,3.75 0 0 1 212.69,8.5 L219.69,28.2969 L263.19,28.2969 A2.5,2.5 0 0 1 265.69,30.7969 L265.69,100.8 A2.5,2.5 0 0 1 263.19,103.3 L96.19,103.3 A2.5,2.5 0 0 1 93.69,100.8 L93.69,8.5 A2.5,2.5 0 0 1 96.19,6 " fill="none" style="stroke:#000000;stroke-width:1.5;"></path><line style="stroke:#000000;stroke-width:1.5;" x1="93.69" x2="219.69" y1="28.2969" y2="28.2969"></line><text fill="#000000" font-family="sans-serif" font-size="14" font-weight="bold" lengthAdjust="spacing" textLength="113" x="97.69" y="20.9951">Handle Upload</text></g><!--cluster Video Consumer--><g id="cluster_Video Consumer"><path d="M46.19,305.6 L178.19,305.6 A3.75,3.75 0 0 1 180.69,308.1 L187.69,327.8969 L229.19,327.8969 A2.5,2.5 0 0 1 231.69,330.3969 L231.69,400.39 A2.5,2.5 0 0 1 229.19,402.89 L46.19,402.89 A2.5,2.5 0 0 1 43.69,400.39 L43.69,308.1 A2.5,2.5 0 0 1 46.19,305.6 " fill="none" style="stroke:#000000;stroke-width:1.5;"></path><line style="stroke:#000000;stroke-width:1.5;" x1="43.69" x2="187.69" y1="327.8969" y2="327.8969"></line><text fill="#000000" font-family="sans-serif" font-size="14" font-weight="bold" lengthAdjust="spacing" textLength="131" x="47.69" y="320.5951">Video Consumer</text></g><!--cluster Video Transcode--><g id="cluster_Video Transcode"><path d="M258.19,305.6 L393.19,305.6 A3.75,3.75 0 0 1 395.69,308.1 L402.69,327.8969 L443.19,327.8969 A2.5,2.5 0 0 1 445.69,330.3969 L445.69,400.39 A2.5,2.5 0 0 1 443.19,402.89 L258.19,402.89 A2.5,2.5 0 0 1 255.69,400.39 L255.69,308.1 A2.5,2.5 0 0 1 258.19,305.6 " fill="none" style="stroke:#000000;stroke-width:1.5;"></path><line style="stroke:#000000;stroke-width:1.5;" x1="255.69" x2="402.69" y1="327.8969" y2="327.8969"></line><text fill="#000000" font-family="sans-serif" font-size="14" font-weight="bold" lengthAdjust="spacing" textLength="134" x="259.69" y="320.5951">Video Transcode</text></g><!--cluster Video Watermark--><g id="cluster_Video Watermark"><path d="M479.19,305.6 L616.19,305.6 A3.75,3.75 0 0 1 618.69,308.1 L625.69,327.8969 L664.19,327.8969 A2.5,2.5 0 0 1 666.69,330.3969 L666.69,400.39 A2.5,2.5 0 0 1 664.19,402.89 L479.19,402.89 A2.5,2.5 0 0 1 476.69,400.39 L476.69,308.1 A2.5,2.5 0 0 1 479.19,305.6 " fill="none" style="stroke:#000000;stroke-width:1.5;"></path><line style="stroke:#000000;stroke-width:1.5;" x1="476.69" x2="625.69" y1="327.8969" y2="327.8969"></line><text fill="#000000" font-family="sans-serif" font-size="14" font-weight="bold" lengthAdjust="spacing" textLength="136" x="480.69" y="320.5951">Video Watermark</text></g><!--cluster Final Messages--><g id="cluster_Final Messages"><path d="M362.19,6 L483.19,6 A3.75,3.75 0 0 1 485.69,8.5 L492.69,28.2969 L535.19,28.2969 A2.5,2.5 0 0 1 537.69,30.7969 L537.69,100.8 A2.5,2.5 0 0 1 535.19,103.3 L362.19,103.3 A2.5,2.5 0 0 1 359.69,100.8 L359.69,8.5 A2.5,2.5 0 0 1 362.19,6 " fill="none" style="stroke:#000000;stroke-width:1.5;"></path><line style="stroke:#000000;stroke-width:1.5;" x1="359.69" x2="492.69" y1="28.2969" y2="28.2969"></line><text fill="#000000" font-family="sans-serif" font-size="14" font-weight="bold" lengthAdjust="spacing" textLength="120" x="363.69" y="20.9951">Final Messages</text></g><!--entity HandleUpload--><g id="elem_HandleUpload"><rect fill="#F1F1F1" height="46.2969" rx="2.5" ry="2.5" style="stroke:#181818;stroke-width:0.5;" width="140" x="109.69" y="41"></rect><rect fill="#F1F1F1" height="10" style="stroke:#181818;stroke-width:0.5;" width="15" x="229.69" y="46"></rect><rect fill="#F1F1F1" height="2" style="stroke:#181818;stroke-width:0.5;" width="4" x="227.69" y="48"></rect><rect fill="#F1F1F1" height="2" style="stroke:#181818;stroke-width:0.5;" width="4" x="227.69" y="52"></rect><text fill="#000000" font-family="sans-serif" font-size="14" lengthAdjust="spacing" textLength="100" x="124.69" y="73.9951">Handle Upload</text></g><!--entity VideoConsumer--><g id="elem_VideoConsumer"><rect fill="#F1F1F1" height="46.2969" rx="2.5" ry="2.5" style="stroke:#181818;stroke-width:0.5;" width="155" x="60.19" y="340.6"></rect><rect fill="#F1F1F1" height="10" style="stroke:#181818;stroke-width:0.5;" width="15" x="195.19" y="345.6"></rect><rect fill="#F1F1F1" height="2" style="stroke:#181818;stroke-width:0.5;" width="4" x="193.19" y="347.6"></rect><rect fill="#F1F1F1" height="2" style="stroke:#181818;stroke-width:0.5;" width="4" x="193.19" y="351.6"></rect><text fill="#000000" font-family="sans-serif" font-size="14" lengthAdjust="spacing" textLength="115" x="75.19" y="373.5951">Video Consumer</text></g><!--entity VideoTranscode--><g id="elem_VideoTranscode"><rect fill="#F1F1F1" height="46.2969" rx="2.5" ry="2.5" style="stroke:#181818;stroke-width:0.5;" width="157" x="272.19" y="340.6"></rect><rect fill="#F1F1F1" height="10" style="stroke:#181818;stroke-width:0.5;" width="15" x="409.19" y="345.6"></rect><rect fill="#F1F1F1" height="2" style="stroke:#181818;stroke-width:0.5;" width="4" x="407.19" y="347.6"></rect><rect fill="#F1F1F1" height="2" style="stroke:#181818;stroke-width:0.5;" width="4" x="407.19" y="351.6"></rect><text fill="#000000" font-family="sans-serif" font-size="14" lengthAdjust="spacing" textLength="117" x="287.19" y="373.5951">Video Transcode</text></g><!--entity VideoWatermark--><g id="elem_VideoWatermark"><rect fill="#F1F1F1" height="46.2969" rx="2.5" ry="2.5" style="stroke:#181818;stroke-width:0.5;" width="157" x="493.19" y="340.6"></rect><rect fill="#F1F1F1" height="10" style="stroke:#181818;stroke-width:0.5;" width="15" x="630.19" y="345.6"></rect><rect fill="#F1F1F1" height="2" style="stroke:#181818;stroke-width:0.5;" width="4" x="628.19" y="347.6"></rect><rect fill="#F1F1F1" height="2" style="stroke:#181818;stroke-width:0.5;" width="4" x="628.19" y="351.6"></rect><text fill="#000000" font-family="sans-serif" font-size="14" lengthAdjust="spacing" textLength="117" x="508.19" y="373.5951">Video Watermark</text></g><!--entity FinalMessages--><g id="elem_FinalMessages"><rect fill="#F1F1F1" height="46.2969" rx="2.5" ry="2.5" style="stroke:#181818;stroke-width:0.5;" width="146" x="375.69" y="41"></rect><rect fill="#F1F1F1" height="10" style="stroke:#181818;stroke-width:0.5;" width="15" x="501.69" y="46"></rect><rect fill="#F1F1F1" height="2" style="stroke:#181818;stroke-width:0.5;" width="4" x="499.69" y="48"></rect><rect fill="#F1F1F1" height="2" style="stroke:#181818;stroke-width:0.5;" width="4" x="499.69" y="52"></rect><text fill="#000000" font-family="sans-serif" font-size="14" lengthAdjust="spacing" textLength="106" x="390.69" y="73.9951">Final Messages</text></g><!--entity DB--><g id="elem_DB"><path d="M300.69,475.89 C300.69,465.89 343.69,465.89 343.69,465.89 C343.69,465.89 386.69,465.89 386.69,475.89 L386.69,501.1869 C386.69,511.1869 343.69,511.1869 343.69,511.1869 C343.69,511.1869 300.69,511.1869 300.69,501.1869 L300.69,475.89 " fill="#F1F1F1" style="stroke:#181818;stroke-width:0.5;"></path><path d="M300.69,475.89 C300.69,485.89 343.69,485.89 343.69,485.89 C343.69,485.89 386.69,485.89 386.69,475.89 " fill="none" style="stroke:#181818;stroke-width:0.5;"></path><text fill="#000000" font-family="sans-serif" font-size="14" lengthAdjust="spacing" textLength="66" x="310.69" y="502.8851">Database</text></g><!--entity K--><g id="elem_K"><ellipse cx="354.69" cy="174.8" fill="#F1F1F1" rx="8" ry="8" style="stroke:#181818;stroke-width:0.5;"></ellipse><path d="M354.69,182.8 L354.69,209.8 M341.69,190.8 L367.69,190.8 M354.69,209.8 L341.69,224.8 M354.69,209.8 L367.69,224.8 " fill="none" style="stroke:#181818;stroke-width:0.5;"></path><text fill="#000000" font-family="sans-serif" font-size="14" lengthAdjust="spacing" textLength="37" x="336.19" y="239.2951">Kafka</text></g><!--link HandleUpload to K--><g id="link_HandleUpload_K"><path d="M181.78,87.75 C184.27,103.07 189.73,122.89 201.69,136.3 C238,176.99 297.609,192.9913 329.839,199.2213 " fill="none" id="HandleUpload-to-K" style="stroke:#181818;stroke-width:1.0;"></path><polygon fill="#181818" points="335.73,200.36,327.6527,194.7246,330.8209,199.4111,326.1344,202.5792,335.73,200.36" style="stroke:#181818;stroke-width:1.0;"></polygon><text fill="#000000" font-family="sans-serif" font-size="13" lengthAdjust="spacing" textLength="133" x="202.69" y="132.3669">Sends video file path</text></g><!--link K to VideoConsumer--><g id="link_K_VideoConsumer"><path d="M335.69,206.32 C271.9,209.7 67.16,224.2 27.69,272.6 C6,299.19 34.8571,320.9651 70.7271,337.6051 " fill="none" id="K-to-VideoConsumer" style="stroke:#181818;stroke-width:1.0;"></path><polygon fill="#181818" points="76.17,340.13,69.689,332.714,71.6343,338.0259,66.3224,339.9712,76.17,340.13" style="stroke:#181818;stroke-width:1.0;"></polygon><text fill="#000000" font-family="sans-serif" font-size="13" lengthAdjust="spacing" textLength="98" x="28.69" y="285.6669">Video file paths</text></g><!--link VideoConsumer to K--><g id="link_VideoConsumer_K"><path d="M147.61,340.41 C157.52,320.32 174.46,291.2 196.69,272.6 C239.45,236.84 298.225,218.9284 329.935,211.0984 " fill="none" id="VideoConsumer-to-K" style="stroke:#181818;stroke-width:1.0;"></path><polygon fill="#181818" points="335.76,209.66,326.0635,207.9342,330.9058,210.8586,327.9813,215.7009,335.76,209.66" style="stroke:#181818;stroke-width:1.0;"></polygon><text fill="#000000" font-family="sans-serif" font-size="13" lengthAdjust="spacing" textLength="95" x="197.69" y="285.6669">Sends video ID</text></g><!--link VideoConsumer to DB--><g id="link_VideoConsumer_DB"><path d="M154.95,387.19 C167.8,402.64 186.55,422.68 206.69,435.89 C235.49,454.79 266.4398,466.4368 294.5998,474.8268 " fill="none" id="VideoConsumer-to-DB" style="stroke:#181818;stroke-width:1.0;"></path><polygon fill="#181818" points="300.35,476.54,292.8668,470.1367,295.5582,475.1123,290.5825,477.8036,300.35,476.54" style="stroke:#181818;stroke-width:1.0;"></polygon><text fill="#000000" font-family="sans-serif" font-size="13" lengthAdjust="spacing" textLength="123" x="207.69" y="431.9569">Saves video details</text></g><!--link K to VideoTranscode--><g id="link_K_VideoTranscode"><path d="M335.88,223.79 C324.43,236.32 310.87,253.97 304.69,272.6 C296.68,296.78 308.5929,317.9365 323.8229,335.6865 " fill="none" id="K-to-VideoTranscode" style="stroke:#181818;stroke-width:1.0;"></path><polygon fill="#181818" points="327.73,340.24,324.9051,330.805,324.4741,336.4454,318.8337,336.0144,327.73,340.24" style="stroke:#181818;stroke-width:1.0;"></polygon><text fill="#000000" font-family="sans-serif" font-size="13" lengthAdjust="spacing" textLength="53" x="305.69" y="285.6669">Video ID</text></g><!--link VideoTranscode to K--><g id="link_VideoTranscode_K"><path d="M356.6,340.25 C360.72,322.07 365.24,295.79 363.69,272.6 C363.05,262.97 362.6845,258.5785 361.4145,248.9485 " fill="none" id="VideoTranscode-to-K" style="stroke:#181818;stroke-width:1.0;"></path><polygon fill="#181818" points="360.63,243,357.8411,252.4457,361.2837,247.9571,365.7724,251.3998,360.63,243" style="stroke:#181818;stroke-width:1.0;"></polygon><text fill="#000000" font-family="sans-serif" font-size="13" lengthAdjust="spacing" textLength="95" x="364.69" y="285.6669">Sends video ID</text></g><!--link VideoTranscode to DB--><g id="link_VideoTranscode_DB"><path d="M345.58,387.27 C343.63,396.95 341.65,408.42 340.69,418.89 C340,426.42 340.47,428.34 340.69,435.89 C340.97,445.59 341.17,450.312 341.75,459.452 " fill="none" id="VideoTranscode-to-DB" style="stroke:#181818;stroke-width:1.0;"></path><polygon fill="#181818" points="342.13,465.44,345.552,456.2047,341.8134,460.45,337.5681,456.7114,342.13,465.44" style="stroke:#181818;stroke-width:1.0;"></polygon><text fill="#000000" font-family="sans-serif" font-size="13" lengthAdjust="spacing" textLength="186" x="341.69" y="431.9569">Saves transcoded video path</text></g><!--link K to VideoWatermark--><g id="link_K_VideoWatermark"><path d="M373.52,215.13 C396.69,227.36 436.85,249.59 468.69,272.6 C497.78,293.61 524.0282,317.0799 544.2382,336.1699 " fill="none" id="K-to-VideoWatermark" style="stroke:#181818;stroke-width:1.0;"></path><polygon fill="#181818" points="548.6,340.29,544.804,331.2021,544.9652,336.8566,539.3106,337.0178,548.6,340.29" style="stroke:#181818;stroke-width:1.0;"></polygon><text fill="#000000" font-family="sans-serif" font-size="13" lengthAdjust="spacing" textLength="53" x="489.69" y="285.6669">Video ID</text></g><!--link VideoWatermark to K--><g id="link_VideoWatermark_K"><path d="M572.55,340.36 C572.11,320.25 568.27,291.11 551.69,272.6 C504.09,219.43 418.6698,208.6792 379.3898,206.3892 " fill="none" id="VideoWatermark-to-K" style="stroke:#181818;stroke-width:1.0;"></path><polygon fill="#181818" points="373.4,206.04,382.1519,210.557,378.3915,206.331,382.6175,202.5706,373.4,206.04" style="stroke:#181818;stroke-width:1.0;"></polygon><text fill="#000000" font-family="sans-serif" font-size="13" lengthAdjust="spacing" textLength="110" x="562.69" y="285.6669">Sends messages</text></g><!--link VideoWatermark to DB--><g id="link_VideoWatermark_DB"><path d="M564.72,387.13 C558.68,402.97 548.4,423.5 532.69,435.89 C490.5,469.19 434.3692,480.4525 392.9992,484.6625 " fill="none" id="VideoWatermark-to-DB" style="stroke:#181818;stroke-width:1.0;"></path><polygon fill="#181818" points="387.03,485.27,396.3887,488.3383,392.0043,484.7638,395.5788,480.3794,387.03,485.27" style="stroke:#181818;stroke-width:1.0;"></polygon><text fill="#000000" font-family="sans-serif" font-size="13" lengthAdjust="spacing" textLength="198" x="547.69" y="431.9569">Saves watermarked video path</text></g><!--link FinalMessages to K--><g id="link_FinalMessages_K"><path d="M385.52,87.73 C372.06,95.59 359.55,105.91 351.69,119.3 C343.55,133.17 342.1968,144.6987 344.1768,160.1387 " fill="none" id="FinalMessages-to-K" style="stroke:#181818;stroke-width:1.0;"></path><polygon fill="#181818" points="344.94,166.09,347.7627,156.6543,344.304,161.1306,339.8277,157.6719,344.94,166.09" style="stroke:#181818;stroke-width:1.0;"></polygon><text fill="#000000" font-family="sans-serif" font-size="13" lengthAdjust="spacing" textLength="123" x="352.69" y="132.3669">Success messages</text></g><!--link FinalMessages to K--><g id="link_FinalMessages_K"><path d="M469.93,87.62 C480.83,101.97 490.03,120.74 480.69,136.3 C457.22,175.4 408.2418,191.6213 379.2618,198.4113 " fill="none" id="FinalMessages-to-K-1" style="stroke:#181818;stroke-width:1.0;"></path><polygon fill="#181818" points="373.42,199.78,383.0952,201.6214,378.2882,198.6394,381.2702,193.8324,373.42,199.78" style="stroke:#181818;stroke-width:1.0;"></polygon><text fill="#000000" font-family="sans-serif" font-size="13" lengthAdjust="spacing" textLength="101" x="484.69" y="132.3669">Error messages</text></g><!--SRC=[XP6nJiCm48PtFyKfUr-0WQ4418gOW7P038TzXIY97TbkEo3U7SUjxTfOaAdvxlVtfxuP-O0V1CqzIZ4IlCoZGj705mFtl6Rq3T30YPm0-sPi3e9DBqZ1ZP9cFv6EXXnxXKU1L1pF6gNXIb0XYJnP8gfejcX9JwY7GXDvqaIKQUvwYICyaZ7krKHBZht4eq0MXq2BxsYSf3t_QfPSksR8hTBGuMx0XNICNTueh5RNqC4LF94K1Wx-WtUzMy6CzfDrVfxTdyjkyfHXUM0vqguN9nueE0LPxCTQj6n_Q2zhuuN7NZSl9aMX3GDnDlg_KZdpTtFSqQ_cD2cQZs5GgSuFfUefR37RQGhjENVilzYjrcxB8VG3]--></g></svg>